<?xml version="1.0" encoding="UTF-8" standalone="no"?>
<svg
   xmlns:dc="http://purl.org/dc/elements/1.1/"
   xmlns:cc="http://creativecommons.org/ns#"
   xmlns:rdf="http://www.w3.org/1999/02/22-rdf-syntax-ns#"
   xmlns:svg="http://www.w3.org/2000/svg"
   xmlns="http://www.w3.org/2000/svg"
   xmlns:sodipodi="http://sodipodi.sourceforge.net/DTD/sodipodi-0.dtd"
   xmlns:inkscape="http://www.inkscape.org/namespaces/inkscape"
   width="72.384247mm"
   height="17.272018mm"
   viewBox="0 0 72.384247 17.272018"
   version="1.1"
   id="svg8"
   inkscape:version="1.0.2-2 (e86c870879, 2021-01-15)"
   sodipodi:docname="didrik_white.svg">
  <defs
     id="defs2">
    <rect
       x="10.583333"
       y="68.791664"
       width="167.82143"
       height="149.67857"
       id="rect835" />
    <rect
       x="10.583333"
       y="68.791664"
       width="167.82143"
       height="149.67857"
       id="rect835-9" />
    <rect
       x="10.583333"
       y="68.791664"
       width="167.82143"
       height="149.67857"
       id="rect898" />
    <rect
       x="10.583333"
       y="68.791664"
       width="167.82143"
       height="149.67857"
       id="rect934" />
  </defs>
  <sodipodi:namedview
     id="base"
     pagecolor="#000000"
     bordercolor="#666666"
     borderopacity="1.0"
     inkscape:pageopacity="0"
     inkscape:pageshadow="2"
     inkscape:zoom="5.6568543"
     inkscape:cx="-63.465679"
     inkscape:cy="14.120625"
     inkscape:document-units="mm"
     inkscape:current-layer="layer2"
     inkscape:document-rotation="0"
     showgrid="false"
     inkscape:window-width="3840"
     inkscape:window-height="2066"
     inkscape:window-x="3829"
     inkscape:window-y="-11"
     inkscape:window-maximized="1"
     fit-margin-top="0"
     fit-margin-left="0"
     fit-margin-right="0"
     fit-margin-bottom="0" />
  <metadata
     id="metadata5">
    <rdf:RDF>
      <cc:Work
         rdf:about="">
        <dc:format>image/svg+xml</dc:format>
        <dc:type
           rdf:resource="http://purl.org/dc/dcmitype/StillImage" />
        <dc:title></dc:title>
      </cc:Work>
    </rdf:RDF>
  </metadata>
  <g
     inkscape:label="Layer 1"
     inkscape:groupmode="layer"
     id="layer1"
     style="display:inline"
     transform="translate(-1.2446354,-57.457063)">
    <path
       d="M 9.124288,58.92462 C 8.334065,58.83431 7.97282,58.83431 7.137441,58.83431 H 1.244635 v 15.578682 h 5.892806 c 0.835379,0 1.196624,0 1.986847,-0.09031 3.612448,-0.4064 6.592718,-3.025425 6.592718,-7.90223 0,-4.876805 -2.98027,-7.08943 -6.592718,-7.49583 z M 8.040553,71.206944 c -0.519289,0.04515 -0.880534,0.04515 -1.467557,0.04515 H 5.30864 v -9.256898 h 1.264356 c 0.587023,0 0.948268,0 1.467557,0.04515 2.032003,0.180623 3.431826,1.670758 3.431826,4.447827 0,2.77707 -1.399823,4.538138 -3.431826,4.718761 z"
       style="font-style:normal;font-variant:normal;font-weight:900;font-stretch:normal;font-size:22.5778px;line-height:1.25;font-family:Aileron;-inkscape-font-specification:'Aileron, Heavy';font-variant-ligatures:normal;font-variant-caps:normal;font-variant-numeric:normal;font-variant-east-asian:normal;white-space:pre;fill:#ffffff;fill-opacity:1;stroke-width:0;stroke-miterlimit:4;stroke-dasharray:none"
       id="path965" />
    <path
       d="M 21.632359,74.412991 V 62.356446 h -4.064005 v 12.056545 z"
       style="font-style:normal;font-variant:normal;font-weight:900;font-stretch:normal;font-size:22.5778px;line-height:1.25;font-family:Aileron;-inkscape-font-specification:'Aileron, Heavy';font-variant-ligatures:normal;font-variant-caps:normal;font-variant-numeric:normal;font-variant-east-asian:normal;white-space:pre;fill:#ffffff;fill-opacity:1;stroke-width:0;stroke-miterlimit:4;stroke-dasharray:none"
       id="path967"
       sodipodi:nodetypes="ccccc" />
    <path
       d="m 36.736868,57.818308 h -4.064004 v 6.096006 l -0.790223,-1.286935 c -0.609601,-0.361245 -1.783647,-0.587023 -2.77707,-0.587023 -3.093159,0 -5.712184,2.325514 -5.712184,6.615296 0,3.567293 2.032002,6.073429 5.305784,6.073429 1.219201,0 2.393246,-0.248356 3.07058,-0.745068 l 0.903113,-1.33209 v 1.761068 h 4.064004 z m -6.637874,14.156281 c -1.422401,0 -2.551291,-1.264357 -2.551291,-3.522137 0,-2.46098 1.083734,-3.657604 2.66418,-3.657604 1.219201,0 2.460981,0.812801 2.460981,3.228626 v 0.519289 c 0,2.528714 -1.083735,3.431826 -2.57387,3.431826 z"
       style="font-style:normal;font-variant:normal;font-weight:900;font-stretch:normal;font-size:22.5778px;line-height:1.25;font-family:Aileron;-inkscape-font-specification:'Aileron, Heavy';font-variant-ligatures:normal;font-variant-caps:normal;font-variant-numeric:normal;font-variant-east-asian:normal;white-space:pre;fill:#ffffff;fill-opacity:1;stroke-width:0;stroke-miterlimit:4;stroke-dasharray:none"
       id="path969" />
    <path
       d="m 46.46787,62.040356 c -0.767645,0 -1.715913,0.338667 -2.370669,1.061157 l -0.857957,1.693335 V 62.356446 H 39.17524 v 12.056545 h 4.064004 v -4.425249 c 0,-3.635026 1.106313,-4.763916 4.154316,-4.560715 V 62.10809 c -0.293512,-0.04516 -0.541867,-0.06773 -0.92569,-0.06773 z"
       style="font-style:normal;font-variant:normal;font-weight:900;font-stretch:normal;font-size:22.5778px;line-height:1.25;font-family:Aileron;-inkscape-font-specification:'Aileron, Heavy';font-variant-ligatures:normal;font-variant-caps:normal;font-variant-numeric:normal;font-variant-east-asian:normal;white-space:pre;fill:#ffffff;fill-opacity:1;stroke-width:0;stroke-miterlimit:4;stroke-dasharray:none"
       id="path971" />
    <path
       d="m 50.689878,57.457063 c -1.264357,0 -2.099736,0.767645 -2.099736,1.986846 0,1.219202 0.835379,1.986847 2.099736,1.986847 1.264357,0 2.099735,-0.767645 2.099735,-1.986847 0,-1.219201 -0.835378,-1.986846 -2.099735,-1.986846 z M 52.72188,74.412991 V 62.356446 h -4.064004 v 12.056545 z"
       style="font-style:normal;font-variant:normal;font-weight:900;font-stretch:normal;font-size:22.5778px;line-height:1.25;font-family:Aileron;-inkscape-font-specification:'Aileron, Heavy';font-variant-ligatures:normal;font-variant-caps:normal;font-variant-numeric:normal;font-variant-east-asian:normal;white-space:pre;fill:#ffffff;fill-opacity:1;stroke-width:0;stroke-miterlimit:4;stroke-dasharray:none"
       id="path973" />
    <path
       d="m 60.082202,69.942587 3.228625,4.470404 h 4.989694 l -5.170316,-6.524984 5.102583,-5.531561 h -4.763916 l -4.244627,5.057427 v -9.595565 h -4.064004 v 16.594683 h 4.064004 v -3.522137 z"
       style="font-style:normal;font-variant:normal;font-weight:900;font-stretch:normal;font-size:22.5778px;line-height:1.25;font-family:Aileron;-inkscape-font-specification:'Aileron, Heavy';font-variant-ligatures:normal;font-variant-caps:normal;font-variant-numeric:normal;font-variant-east-asian:normal;white-space:pre;fill:#ffffff;fill-opacity:1;stroke-width:0;stroke-miterlimit:4;stroke-dasharray:none"
       id="path975" />
    <path
       d="m 71.371101,70.21352 c -1.332091,0 -2.25778,0.92569 -2.25778,2.25778 0,1.332091 0.925689,2.257781 2.25778,2.257781 1.33209,0 2.25778,-0.92569 2.25778,-2.257781 0,-1.33209 -0.92569,-2.25778 -2.25778,-2.25778 z"
       style="font-style:normal;font-variant:normal;font-weight:900;font-stretch:normal;font-size:22.5778px;line-height:1.25;font-family:Aileron;-inkscape-font-specification:'Aileron, Heavy';font-variant-ligatures:normal;font-variant-caps:normal;font-variant-numeric:normal;font-variant-east-asian:normal;white-space:pre;fill:#ffffff;fill-opacity:1;stroke-width:0;stroke-miterlimit:4;stroke-dasharray:none"
       id="path977" />
    <g
       id="g928" />
  </g>
  <g
     inkscape:groupmode="layer"
     id="layer2"
     inkscape:label="Red"
     style="display:inline"
     sodipodi:insensitive="true"
     transform="translate(-1.2446354,-57.457063)">
    <path
       d="m 19.600356,57.457063 c -1.264356,0 -2.099735,0.767645 -2.099735,1.986846 0,1.219202 0.835379,1.986847 2.099735,1.986847 1.264357,0 2.099736,-0.767645 2.099736,-1.986847 0,-1.219201 -0.835379,-1.986846 -2.099736,-1.986846 z m 2.032003,16.955928 V 62.356446 74.412991 h -4.064005 z"
       style="font-style:normal;font-variant:normal;font-weight:900;font-stretch:normal;font-size:22.5778px;line-height:1.25;font-family:Aileron;-inkscape-font-specification:'Aileron, Heavy';font-variant-ligatures:normal;font-variant-caps:normal;font-variant-numeric:normal;font-variant-east-asian:normal;white-space:pre;fill:#ff0000;fill-opacity:1;stroke-width:0;stroke-miterlimit:4;stroke-dasharray:none"
       id="path941"
       sodipodi:nodetypes="sssssccccc" />
  </g>
</svg>
