<?xml version="1.0" standalone="no"?>
<!DOCTYPE svg PUBLIC "-//W3C//DTD SVG 20010904//EN"
 "http://www.w3.org/TR/2001/REC-SVG-20010904/DTD/svg10.dtd">
<svg version="1.0" xmlns="http://www.w3.org/2000/svg"
 width="616.000000pt" height="616.000000pt" viewBox="0 0 616.000000 616.000000"
 preserveAspectRatio="xMidYMid meet">
<metadata>
Created by potrace 1.14, written by Peter Selinger 2001-2017
</metadata>
<g transform="translate(0.000000,616.000000) scale(0.100000,-0.100000)"
fill="#000000" stroke="none">
<path d="M5350 5610 c-184 -43 -307 -134 -387 -286 -44 -82 -65 -179 -66 -294
0 -309 182 -528 488 -586 22 -4 83 -8 135 -9 293 -5 517 134 602 372 29 82 32
105 32 218 0 123 -13 213 -36 241 -5 7 -11 21 -13 33 -2 11 -21 46 -43 78 -85
125 -208 203 -374 237 -92 19 -247 17 -338 -4z"/>
<path d="M0 2867 l0 -2348 1118 4 c614 2 1126 6 1137 9 18 5 88 14 190 23 17
2 30 4 30 5 0 2 5 3 80 14 22 3 55 10 73 15 18 5 35 10 37 10 3 1 6 1 8 2 1 0
9 2 17 4 8 2 26 7 40 10 14 3 34 8 45 10 94 21 341 122 470 193 81 45 234 143
257 165 7 7 36 30 63 52 139 110 332 331 433 497 61 99 131 236 124 242 -3 3
0 6 6 6 7 0 12 8 12 18 0 10 4 22 8 28 12 13 81 202 98 264 16 61 45 179 49
200 5 27 12 61 20 99 2 13 7 49 11 80 3 31 8 64 10 74 18 98 24 479 11 657
-11 135 -19 192 -48 340 -7 30 -13 62 -14 70 -2 8 -4 16 -5 18 -2 1 -3 5 -4
10 -16 74 -84 278 -113 342 -14 30 -31 66 -37 80 -36 82 -148 262 -221 356
-58 74 -201 217 -280 280 -44 35 -85 68 -91 73 -62 50 -336 202 -419 232 -11
4 -37 15 -59 24 -21 9 -44 18 -50 20 -6 1 -18 5 -26 8 -30 12 -176 57 -200 62
-14 2 -65 14 -115 25 -49 11 -108 22 -130 25 -22 3 -51 8 -65 10 -54 9 -121
17 -280 31 -30 3 -535 6 -1122 7 l-1068 2 0 -2348z m1915 1389 c184 -9 307
-26 346 -46 10 -6 27 -10 37 -10 34 0 182 -70 268 -127 75 -49 174 -137 233
-208 53 -63 171 -274 171 -305 0 -6 4 -18 9 -28 33 -58 69 -225 90 -407 9 -75
6 -433 -3 -475 -3 -14 -8 -45 -11 -70 -27 -223 -113 -454 -237 -638 -63 -93
-191 -223 -273 -277 -33 -22 -62 -42 -65 -45 -3 -3 -41 -22 -86 -42 -92 -42
-208 -75 -298 -84 -83 -9 -85 -9 -92 -17 -4 -3 -14 -2 -24 3 -10 5 -20 6 -24
2 -9 -8 -726 -12 -727 -4 -1 4 -2 631 -3 1394 l-2 1387 20 3 c34 5 551 0 671
-6z"/>
<path d="M4927 4150 c-10 -4 -12 -387 -12 -1815 l0 -1810 613 -3 612 -2 -2
1817 -3 1817 -598 1 c-329 0 -603 -2 -610 -5z"/>
</g>
</svg>
